<?xml version="1.0" encoding="UTF-8" standalone="no"?><!DOCTYPE svg PUBLIC "-//W3C//DTD SVG 1.1//EN" "http://www.w3.org/Graphics/SVG/1.1/DTD/svg11.dtd"><svg width="100%" height="100%" viewBox="0 0 2134 2134" version="1.1" xmlns="http://www.w3.org/2000/svg" xmlns:xlink="http://www.w3.org/1999/xlink" xml:space="preserve" xmlns:serif="http://www.serif.com/" style="fill-rule:evenodd;clip-rule:evenodd;stroke-linejoin:round;stroke-miterlimit:2;"><path d="M1994.629,693.138c-43.521,-104.683 -131.667,-217.7 -200.883,-253.421c56.333,110.437 88.938,221.221 101.396,303.9c0,0.162 0.062,0.567 0.196,1.667c-113.229,-282.221 -305.225,-396.021 -462.004,-643.804c-7.917,-12.529 -15.854,-25.092 -23.588,-38.333c-3.938,-6.763 -7.615,-13.673 -11.025,-20.717c-6.514,-12.576 -11.538,-25.868 -14.971,-39.608c0.049,-1.341 -0.944,-2.513 -2.275,-2.683c-0.614,-0.176 -1.265,-0.176 -1.879,0c-0.142,0.05 -0.35,0.212 -0.5,0.271c-0.221,0.088 -0.5,0.288 -0.733,0.417c0.112,-0.15 0.346,-0.488 0.417,-0.567c-251.542,147.317 -336.875,419.838 -344.717,556.183c-100.435,6.905 -196.495,43.922 -275.592,106.2c-8.282,-6.996 -16.941,-13.533 -25.938,-19.583c-22.822,-79.844 -23.792,-164.37 -2.808,-244.717c-102.867,46.837 -182.875,120.875 -241.042,186.25l-0.463,0c-39.696,-50.279 -36.896,-216.137 -34.633,-250.767c-0.475,-2.146 -29.612,15.125 -33.429,17.729c-35.029,25.003 -67.776,53.057 -97.858,83.833c-34.232,34.715 -65.51,72.224 -93.508,112.138c0,0.05 -0.029,0.108 -0.046,0.158c0,-0.054 0.029,-0.108 0.046,-0.158c-64.389,91.245 -110.058,194.355 -134.362,303.354c-0.479,2.171 -0.883,4.421 -1.35,6.608c-1.883,8.817 -8.667,52.917 -9.854,62.5c-0.092,0.737 -0.133,1.446 -0.221,2.183c-8.77,45.595 -14.201,91.769 -16.25,138.154c0,1.708 -0.104,3.4 -0.104,5.112c0.017,552.971 448.35,1001.229 1001.367,1001.229c495.271,0 906.5,-359.533 987.008,-831.792c1.696,-12.817 3.054,-25.7 4.55,-38.629c19.904,-171.708 -2.208,-352.188 -64.946,-503.108Zm-1154.146,783.725c4.683,2.237 9.083,4.683 13.892,6.829c0.2,0.138 0.475,0.292 0.679,0.417c-4.894,-2.34 -9.752,-4.756 -14.571,-7.246Zm1054.933,-731.333l-0.133,-0.971c0.05,0.354 0.112,0.725 0.167,1.079l-0.033,-0.108Z" style="fill:url(#_Linear1);fill-rule:nonzero;"/><path d="M1994.629,693.138c-43.521,-104.683 -131.667,-217.7 -200.883,-253.421c56.333,110.437 88.938,221.221 101.396,303.9c0,-0.242 0.046,0.2 0.15,0.942c0.05,0.354 0.112,0.725 0.167,1.079c94.479,256.125 43.008,516.575 -31.162,675.729c-114.746,246.25 -392.562,498.625 -827.4,486.317c-469.813,-13.304 -883.704,-361.9 -960.967,-818.475c-14.079,-72 0,-108.558 7.083,-167.017c-8.629,45.067 -11.917,58.083 -16.25,138.154c0,1.708 -0.104,3.4 -0.104,5.112c0.008,552.95 448.342,1001.208 1001.358,1001.208c495.271,0 906.5,-359.533 987.008,-831.792c1.696,-12.817 3.054,-25.7 4.55,-38.629c19.904,-171.708 -2.208,-352.188 -64.946,-503.108Z" style="fill:url(#_Radial2);fill-rule:nonzero;"/><path d="M1994.629,693.138c-43.521,-104.683 -131.667,-217.7 -200.883,-253.421c56.333,110.437 88.938,221.221 101.396,303.9c0,-0.242 0.046,0.2 0.15,0.942c0.05,0.354 0.112,0.725 0.167,1.079c94.479,256.125 43.008,516.575 -31.162,675.729c-114.746,246.25 -392.562,498.625 -827.4,486.317c-469.813,-13.304 -883.704,-361.9 -960.967,-818.475c-14.079,-72 0,-108.558 7.083,-167.017c-8.629,45.067 -11.917,58.083 -16.25,138.154c0,1.708 -0.104,3.4 -0.104,5.112c0.008,552.95 448.342,1001.208 1001.358,1001.208c495.271,0 906.5,-359.533 987.008,-831.792c1.696,-12.817 3.054,-25.7 4.55,-38.629c19.904,-171.708 -2.208,-352.188 -64.946,-503.108Z" style="fill:url(#_Radial3);fill-rule:nonzero;"/><path d="M1508.008,810.833c2.183,1.533 4.167,3.058 6.221,4.583c-25.131,-44.601 -56.425,-85.437 -92.958,-121.3c-311.271,-311.233 -81.621,-674.842 -42.892,-693.308c0.112,-0.15 0.346,-0.487 0.417,-0.567c-251.542,147.317 -336.875,419.838 -344.717,556.183c11.667,-0.808 23.3,-1.788 35.175,-1.788c187.713,0 351.204,103.208 438.754,256.196Z" style="fill:url(#_Radial4);fill-rule:nonzero;"/><path d="M1069.883,872.975c-1.638,24.908 -89.642,110.804 -120.417,110.804c-284.746,0 -330.967,172.229 -330.967,172.229c12.612,145.042 113.587,264.479 235.879,327.679c5.579,2.883 11.225,5.487 16.875,8.062c9.687,4.289 19.495,8.299 29.412,12.025c41.931,14.845 85.852,23.315 130.296,25.129c499.083,23.408 595.775,-596.642 235.604,-776.7c92.237,-16.042 187.979,21.054 241.446,58.612c-87.55,-152.975 -251.042,-256.183 -438.75,-256.183c-11.875,0 -23.504,0.979 -35.175,1.788c-100.435,6.905 -196.495,43.922 -275.592,106.2c15.267,12.917 32.5,30.183 68.808,65.95c67.925,66.946 242.208,136.271 242.579,144.404Z" style="fill:url(#_Radial5);fill-rule:nonzero;"/><path d="M1069.883,872.975c-1.638,24.908 -89.642,110.804 -120.417,110.804c-284.746,0 -330.967,172.229 -330.967,172.229c12.612,145.042 113.587,264.479 235.879,327.679c5.579,2.883 11.225,5.487 16.875,8.062c9.687,4.289 19.495,8.299 29.412,12.025c41.931,14.845 85.852,23.315 130.296,25.129c499.083,23.408 595.775,-596.642 235.604,-776.7c92.237,-16.042 187.979,21.054 241.446,58.612c-87.55,-152.975 -251.042,-256.183 -438.75,-256.183c-11.875,0 -23.504,0.979 -35.175,1.788c-100.435,6.905 -196.495,43.922 -275.592,106.2c15.267,12.917 32.5,30.183 68.808,65.95c67.925,66.946 242.208,136.271 242.579,144.404Z" style="fill:url(#_Radial6);fill-rule:nonzero;"/><path d="M711.788,629.317c6.974,4.498 13.892,9.082 20.754,13.75c-22.822,-79.844 -23.792,-164.37 -2.808,-244.717c-102.867,46.837 -182.875,120.875 -241.042,186.25c4.812,-0.137 150.058,-2.75 223.096,44.717Z" style="fill:url(#_Radial7);fill-rule:nonzero;"/><path d="M75.929,1089.208c77.262,456.575 491.154,805.171 960.967,818.475c434.838,12.308 712.654,-240.083 827.4,-486.317c74.167,-159.167 125.642,-419.583 31.162,-675.729l-0.033,-0.108l-0.133,-0.971c-0.104,-0.742 -0.167,-1.183 -0.15,-0.942c0,0.162 0.062,0.567 0.196,1.667c35.517,231.921 -82.458,456.6 -266.879,608.517l-0.554,1.304c-359.354,292.596 -703.225,176.533 -772.85,129.025c-4.894,-2.355 -9.755,-4.776 -14.583,-7.263c-209.508,-100.121 -296.058,-290.992 -277.5,-454.683c-176.904,0 -237.225,-149.204 -237.225,-149.204c0,0 158.829,-113.246 368.158,-14.754c193.875,91.221 375.95,14.763 375.971,14.754c-0.371,-8.133 -174.654,-77.458 -242.596,-144.4c-36.304,-35.767 -53.542,-53.013 -68.808,-65.95c-8.282,-6.996 -16.941,-13.533 -25.938,-19.583c-6.869,-4.656 -13.788,-9.24 -20.754,-13.75c-73.033,-47.467 -218.283,-44.854 -223.096,-44.729l-0.463,0c-39.696,-50.279 -36.896,-216.138 -34.633,-250.767c-0.475,-2.146 -29.612,15.125 -33.429,17.729c-35.029,25.003 -67.776,53.057 -97.858,83.833c-34.233,34.723 -65.511,72.241 -93.508,112.163c0,0.05 -0.029,0.108 -0.046,0.158c0,-0.054 0.029,-0.108 0.046,-0.158c-64.389,91.245 -110.058,194.355 -134.362,303.354c-0.479,2.171 -36.042,157.675 -18.5,238.329Z" style="fill:url(#_Radial8);fill-rule:nonzero;"/><path d="M1421.271,694.112c36.533,35.863 67.828,76.699 92.958,121.3c5.513,4.142 10.663,8.271 15.033,12.3c227.008,209.167 108.067,505 99.196,526.083c184.421,-151.917 302.396,-376.596 266.879,-608.517c-113.229,-282.217 -305.225,-396.017 -462.004,-643.8c-7.917,-12.529 -15.854,-25.092 -23.588,-38.333c-3.938,-6.763 -7.615,-13.673 -11.025,-20.717c-6.514,-12.576 -11.538,-25.868 -14.971,-39.608c0.049,-1.341 -0.944,-2.513 -2.275,-2.683c-0.614,-0.176 -1.265,-0.176 -1.879,0c-0.142,0.05 -0.35,0.212 -0.5,0.271c-0.221,0.088 -0.5,0.288 -0.733,0.417c-38.713,18.45 -268.362,382.058 42.908,693.288Z" style="fill:url(#_Radial9);fill-rule:nonzero;"/><path d="M1529.263,827.713c-4.371,-4.029 -9.521,-8.158 -15.033,-12.3c-2.037,-1.533 -4.038,-3.058 -6.221,-4.583c-53.467,-37.558 -149.208,-74.654 -241.446,-58.612c360.171,180.058 263.479,800.108 -235.604,776.7c-44.444,-1.814 -88.365,-10.285 -130.296,-25.129c-9.916,-3.73 -19.724,-7.739 -29.412,-12.025c-5.65,-2.575 -11.296,-5.179 -16.875,-8.062c0.2,0.138 0.475,0.292 0.679,0.417c69.625,47.5 413.496,163.571 772.85,-129.025l0.554,-1.304c8.871,-21.058 127.812,-316.904 -99.196,-526.075Z" style="fill:url(#_Radial10);fill-rule:nonzero;"/><path d="M618.496,1156.013c0,0 46.221,-172.229 330.967,-172.229c30.783,0 118.788,-85.896 120.417,-110.804c1.629,-24.908 -182.083,76.467 -375.971,-14.754c-209.329,-98.492 -368.158,14.754 -368.158,14.754c0,0 60.321,149.204 237.225,149.204c-18.554,163.692 67.996,354.583 277.5,454.683c4.683,2.237 9.083,4.683 13.892,6.829c-122.283,-63.204 -223.258,-182.642 -235.871,-327.683Z" style="fill:url(#_Radial11);fill-rule:nonzero;"/><path d="M1994.629,693.138c-43.521,-104.683 -131.667,-217.7 -200.883,-253.421c56.333,110.437 88.938,221.221 101.396,303.9c0,0.162 0.062,0.567 0.196,1.667c-113.229,-282.221 -305.225,-396.021 -462.004,-643.804c-7.917,-12.529 -15.854,-25.092 -23.588,-38.333c-3.938,-6.763 -7.615,-13.673 -11.025,-20.717c-6.514,-12.576 -11.538,-25.868 -14.971,-39.608c0.049,-1.341 -0.944,-2.513 -2.275,-2.683c-0.614,-0.176 -1.265,-0.176 -1.879,0c-0.142,0.05 -0.35,0.212 -0.5,0.271c-0.221,0.088 -0.5,0.288 -0.733,0.417c0.112,-0.15 0.346,-0.488 0.417,-0.567c-251.542,147.317 -336.875,419.838 -344.717,556.183c11.667,-0.808 23.3,-1.788 35.175,-1.788c187.721,0 351.213,103.208 438.75,256.183c-53.467,-37.558 -149.208,-74.654 -241.446,-58.613c360.171,180.058 263.479,800.108 -235.604,776.7c-44.444,-1.814 -88.365,-10.285 -130.296,-25.129c-9.916,-3.73 -19.724,-7.739 -29.412,-12.025c-5.65,-2.575 -11.296,-5.179 -16.875,-8.062c0.2,0.138 0.475,0.292 0.679,0.417c-4.894,-2.355 -9.755,-4.776 -14.583,-7.263c4.683,2.238 9.083,4.683 13.892,6.829c-122.292,-63.2 -223.267,-182.637 -235.879,-327.679c0,0 46.221,-172.229 330.967,-172.229c30.783,0 118.787,-85.896 120.417,-110.804c-0.371,-8.133 -174.654,-77.458 -242.596,-144.4c-36.304,-35.767 -53.542,-53.013 -68.808,-65.95c-8.282,-6.996 -16.941,-13.533 -25.938,-19.583c-22.822,-79.844 -23.792,-164.37 -2.808,-244.717c-102.867,46.837 -182.875,120.875 -241.042,186.25l-0.463,0c-39.696,-50.279 -36.896,-216.137 -34.633,-250.767c-0.475,-2.146 -29.612,15.125 -33.429,17.729c-35.029,25.003 -67.776,53.057 -97.858,83.833c-34.223,34.72 -65.491,72.233 -93.479,112.15c0,0.05 -0.029,0.108 -0.046,0.158c0,-0.054 0.029,-0.108 0.046,-0.158c-64.389,91.245 -110.058,194.355 -134.362,303.354c-0.479,2.171 -0.883,4.421 -1.35,6.608c-1.883,8.817 -10.358,53.554 -11.542,63.15c-0.092,0.737 0.088,-0.733 0,0c-7.729,46.23 -12.66,92.884 -14.767,139.708c-0,1.708 -0.104,3.4 -0.104,5.112c0,552.95 448.333,1001.208 1001.35,1001.208c495.271,0 906.5,-359.533 987.008,-831.792c1.696,-12.817 3.054,-25.7 4.55,-38.629c19.904,-171.708 -2.208,-352.188 -64.946,-503.108Zm-99.338,51.421c0.05,0.354 0.112,0.725 0.167,1.079l-0.033,-0.108l-0.133,-0.971Z" style="fill:url(#_Linear12);fill-rule:nonzero;"/><defs><linearGradient id="_Linear1" x1="0" y1="0" x2="1" y2="0" gradientUnits="userSpaceOnUse" gradientTransform="matrix(-1557.011962,1603.729108,-1603.729108,-1557.011962,1811.663406,320.337935)"><stop offset="0" style="stop-color:#fff44f;stop-opacity:1"/><stop offset="0.05" style="stop-color:#fff44f;stop-opacity:1"/><stop offset="0.37" style="stop-color:#ff980e;stop-opacity:1"/><stop offset="0.53" style="stop-color:#ff3647;stop-opacity:1"/><stop offset="0.7" style="stop-color:#e31587;stop-opacity:1"/><stop offset="1" style="stop-color:#e31587;stop-opacity:1"/></linearGradient><radialGradient id="_Radial2" cx="0" cy="0" r="1" gradientUnits="userSpaceOnUse" gradientTransform="matrix(2048.007201,0,0,2560.009001,1821.064502,439.716667)"><stop offset="0" style="stop-color:#ffbd4f;stop-opacity:1"/><stop offset="0.13" style="stop-color:#ffbd4f;stop-opacity:1"/><stop offset="0.28" style="stop-color:#ff980e;stop-opacity:1"/><stop offset="0.47" style="stop-color:#ff3750;stop-opacity:1"/><stop offset="0.78" style="stop-color:#eb0878;stop-opacity:1"/><stop offset="0.86" style="stop-color:#e50080;stop-opacity:1"/><stop offset="1" style="stop-color:#e50080;stop-opacity:1"/></radialGradient><radialGradient id="_Radial3" cx="0" cy="0" r="1" gradientUnits="userSpaceOnUse" gradientTransform="matrix(2099.207381,0,0,2560.009001,1046.261778,1090.496667)"><stop offset="0" style="stop-color:#960e18;stop-opacity:1"/><stop offset="0.3" style="stop-color:#960e18;stop-opacity:1"/><stop offset="0.35" style="stop-color:#b11927;stop-opacity:0.74"/><stop offset="0.43" style="stop-color:#db293d;stop-opacity:0.34"/><stop offset="0.5" style="stop-color:#f5334b;stop-opacity:0.09"/><stop offset="0.53" style="stop-color:#ff3750;stop-opacity:0"/><stop offset="1" style="stop-color:#ff3750;stop-opacity:0"/></radialGradient><radialGradient id="_Radial4" cx="0" cy="0" r="1" gradientUnits="userSpaceOnUse" gradientTransform="matrix(1141.245,0,0,1141.245,1264.551167,-97.579333)"><stop offset="0" style="stop-color:#fff44f;stop-opacity:1"/><stop offset="0.13" style="stop-color:#fff44f;stop-opacity:1"/><stop offset="0.53" style="stop-color:#ff980e;stop-opacity:1"/><stop offset="1" style="stop-color:#ff980e;stop-opacity:1"/></radialGradient><radialGradient id="_Radial5" cx="0" cy="0" r="1" gradientUnits="userSpaceOnUse" gradientTransform="matrix(974.916186,0,0,974.916186,820.953045,1628.113546)"><stop offset="0" style="stop-color:#3a8ee6;stop-opacity:1"/><stop offset="0.35" style="stop-color:#3a8ee6;stop-opacity:1"/><stop offset="0.67" style="stop-color:#9059ff;stop-opacity:1"/><stop offset="1" style="stop-color:#c139e6;stop-opacity:1"/></radialGradient><radialGradient id="_Radial6" cx="0" cy="0" r="1" gradientUnits="userSpaceOnUse" gradientTransform="matrix(517.680495,0,0,575.20055,1034.79185,876.355675)"><stop offset="0" style="stop-color:#9059ff;stop-opacity:0"/><stop offset="0.21" style="stop-color:#9059ff;stop-opacity:0"/><stop offset="0.97" style="stop-color:#6e008b;stop-opacity:0.6"/><stop offset="1" style="stop-color:#6e008b;stop-opacity:0.6"/></radialGradient><radialGradient id="_Radial7" cx="0" cy="0" r="1" gradientUnits="userSpaceOnUse" gradientTransform="matrix(709.678333,0,0,709.678333,1000.776667,153.633333)"><stop offset="0" style="stop-color:#ffe226;stop-opacity:1"/><stop offset="0.1" style="stop-color:#ffe226;stop-opacity:1"/><stop offset="0.79" style="stop-color:#ff7139;stop-opacity:1"/><stop offset="1" style="stop-color:#ff7139;stop-opacity:1"/></radialGradient><radialGradient id="_Radial8" cx="0" cy="0" r="1" gradientUnits="userSpaceOnUse" gradientTransform="matrix(3376.159656,0,0,3376.159656,1646.611712,-311.929124)"><stop offset="0" style="stop-color:#fff44f;stop-opacity:1"/><stop offset="0.11" style="stop-color:#fff44f;stop-opacity:1"/><stop offset="0.46" style="stop-color:#ff980e;stop-opacity:1"/><stop offset="0.72" style="stop-color:#ff3647;stop-opacity:1"/><stop offset="0.9" style="stop-color:#e31587;stop-opacity:1"/><stop offset="1" style="stop-color:#e31587;stop-opacity:1"/></radialGradient><radialGradient id="_Radial9" cx="0" cy="0" r="1" gradientUnits="userSpaceOnUse" gradientTransform="matrix(493.585585,4660.483268,-2224.085137,231.985225,1360.686823,-256.25751)"><stop offset="0" style="stop-color:#fff44f;stop-opacity:1"/><stop offset="0.3" style="stop-color:#ff980e;stop-opacity:1"/><stop offset="0.57" style="stop-color:#ff3647;stop-opacity:1"/><stop offset="0.74" style="stop-color:#e31587;stop-opacity:1"/><stop offset="1" style="stop-color:#e31587;stop-opacity:1"/></radialGradient><radialGradient id="_Radial10" cx="0" cy="0" r="1" gradientUnits="userSpaceOnUse" gradientTransform="matrix(1938.409239,0,0,1938.409239,1008.049222,408.886211)"><stop offset="0" style="stop-color:#fff44f;stop-opacity:1"/><stop offset="0.14" style="stop-color:#fff44f;stop-opacity:1"/><stop offset="0.48" style="stop-color:#ff980e;stop-opacity:1"/><stop offset="0.66" style="stop-color:#ff3647;stop-opacity:1"/><stop offset="0.9" style="stop-color:#e31587;stop-opacity:1"/><stop offset="1" style="stop-color:#e31587;stop-opacity:1"/></radialGradient><radialGradient id="_Radial11" cx="0" cy="0" r="1" gradientUnits="userSpaceOnUse" gradientTransform="matrix(2329.902096,0,0,2329.902096,1511.164896,520.263008)"><stop offset="0" style="stop-color:#fff44f;stop-opacity:1"/><stop offset="0.09" style="stop-color:#fff44f;stop-opacity:1"/><stop offset="0.63" style="stop-color:#ff980e;stop-opacity:1"/><stop offset="1" style="stop-color:#ff980e;stop-opacity:1"/></radialGradient><linearGradient id="_Linear12" x1="0" y1="0" x2="1" y2="0" gradientUnits="userSpaceOnUse" gradientTransform="matrix(-1239.999193,1446.662855,-1446.662855,-1239.999193,1666.665626,289.338016)"><stop offset="0" style="stop-color:#fff44f;stop-opacity:0.8"/><stop offset="0.17" style="stop-color:#fff44f;stop-opacity:0.8"/><stop offset="0.6" style="stop-color:#fff44f;stop-opacity:0"/><stop offset="1" style="stop-color:#fff44f;stop-opacity:0"/></linearGradient></defs></svg>